<?xml version="1.0" encoding="utf-8"?>
<!-- Generator: Adobe Illustrator 21.1.0, SVG Export Plug-In . SVG Version: 6.00 Build 0)  -->
<svg version="1.1" id="Ebene_1" xmlns="http://www.w3.org/2000/svg" xmlns:xlink="http://www.w3.org/1999/xlink" x="0px" y="0px"
	 viewBox="0 0 256 256" style="enable-background:new 0 0 256 256;" xml:space="preserve">
<style type="text/css">
	.st0{fill:#EDC4A3;}
	.st1{fill:#C6A488;}
	.st2{fill:#994F16;}
</style>
<g>
	<path class="st0" d="M36.1,148.6c0,0,1.9,17.6,3.5,26.5s22.1,24,22.1,24l25.4,7l30.3-3.7l25.2-10.1l24.1-15l21.9-23.2l19.2-28.5
		l13.5-38.3l-6.2-32.7c0,0-5.2-12.5-17.4-22.5S152,22.6,152,22.6l-42.4,14L91.7,49.1L67,76.2l-22.4,33.6l-8.5,23.4V148.6z"/>
	<g>
		<path class="st1" d="M207.3,35.4c-11.3-11.3-27.2-16.8-44.2-16.8v8c16,0,29.1,5.1,38.6,14.5c12.5,12.5,17.1,31.8,12.8,54.3
			c-4.4,23.6-17.9,47.6-38,67.7c-24.7,24.7-55.9,39.5-83.4,39.5c-15.8,0-29.2-5-38.6-14.4c-12.5-12.5-17.1-31.8-12.8-54.3
			c4.4-23.6,17.9-47.6,38-67.7c24.7-24.8,55.9-39.6,83.4-39.6v-8l0,0c-28.5,0-61.9,14.7-89.1,41.9c-43.7,43.7-55,103.4-25.1,133.3
			c11.3,11.3,26.9,16.7,44.2,16.7c28.5,0,61.9-14.6,89.1-41.8C225.9,124.9,237.3,65.3,207.3,35.4z"/>
		<path class="st1" d="M155.1,68.4c-4.4,3.1-8.9,6.6-13.5,10.5c-0.6,0.5-1.1,1-1.7,1.5l-0.9,0.8l-0.4,0.4l-0.1,0.1h-0.1
			c-0.1,0.1,0.1-0.1-0.2,0.2l-0.2,0.2c-0.5,0.5-1.1,1-1.6,1.5c-0.6,0.6-1.2,1.3-1.8,1.9c-2.3,2.5-4.4,5.2-6.3,8.1
			c-1.9,2.9-3.5,6-4.9,9.1s-2.5,6.1-3.5,9s-2,5.6-3,8c-1,2.5-2.1,4.8-3.4,7s-2.7,4.3-4.3,6.3c-0.4,0.5-0.8,1-1.2,1.5l-0.6,0.7
			l-0.3,0.4l-0.2,0.2l-0.1,0.1l0,0c0,0,0.2-0.1,0.1,0c-1,1.1-2,2.1-3,3.2c-1,1.1-1.9,1.9-2.8,2.9c-0.5,0.5-0.9,1-1.4,1.4
			c-0.5,0.5-1,0.9-1.4,1.4c-1.9,1.9-3.8,3.7-5.7,5.5c-1.9,1.8-3.7,3.5-5.5,5.1c-1.8,1.7-3.5,3.3-5.2,4.8
			c-13.7,12.4-22.8,20.6-22.8,20.6c-0.6,0.6-0.9,1.5-0.5,2.3c0.5,1,1.7,1.5,2.7,1l0,0c0,0,0.7-0.3,2-1c1.3-0.6,3.2-1.6,5.6-2.8
			s5.3-2.8,8.6-4.7c3.3-1.9,7-4,10.9-6.5c2-1.2,4-2.6,6.1-3.9c2.1-1.4,4.2-2.9,6.4-4.4c2.2-1.6,4.5-3.2,6.7-4.9
			c0.6-0.4,1.1-0.9,1.7-1.3c0.6-0.5,1.2-0.9,1.7-1.4c1.1-0.9,2.4-1.9,3.5-2.9c1.1-0.9,2.2-1.9,3.3-2.8c0.6-0.6,1.2-1.2,1.9-1.8
			c0.6-0.6,1.2-1.2,1.7-1.8c2.3-2.4,4.5-5.1,6.4-8c3.9-5.8,6.5-12.4,8.6-18.1c1-2.9,2-5.6,3-8.1s2.1-4.8,3.3-7.1
			c1.2-2.2,2.7-4.3,4.2-6.3l1.1-1.4c0.5-0.5,1-1.1,1.5-1.6l0.2-0.2c-0.2,0.2,0,0-0.1,0.1l0,0l0.1-0.1l0.4-0.4l0.7-0.8
			c0.5-0.5,0.9-1,1.4-1.5c3.8-4,7.6-7.8,11.4-11.3c1.9-1.8,3.7-3.5,5.5-5.1c1.8-1.7,3.5-3.3,5.2-4.8c6.8-6.1,12.5-11.2,16.4-14.8
			c4-3.6,6.3-5.7,6.3-5.7c0.6-0.6,0.9-1.5,0.5-2.3c-0.5-1-1.7-1.5-2.7-1l0,0c0,0-2.9,1.3-7.7,3.8c-2.4,1.2-5.3,2.8-8.6,4.7
			s-7,4-10.9,6.5c-2,1.2-4,2.6-6.1,3.9C159.5,65.4,157.3,66.9,155.1,68.4z"/>
	</g>
	<g>
		<path class="st2" d="M84.3,222.3c-8,0-13.5-4-16.3-12c-1.3-3.5-2-7.5-2-11.9c0-4.3,0.7-9.2,2.1-14.6c2.7-10.5,7.4-19.4,13.9-26.4
			c6.7-7.2,14.2-10.8,22.4-10.9c2.2,0,3.4,1,4,1.9c0.4,0.6,0.7,1.2,0.9,1.8c1.2-1.2,2.5-1.8,4.1-1.8c1.1,0,2,0.4,2.8,1.1
			c0.5,0.5,1.1,1.5,1.1,2.9v0.8l-0.6,0.6c-2.2,2.2-3.7,5.4-4.7,9.7c-0.4,1.8-0.6,3.7-0.6,5.7c0,1-0.6,2.2-2.4,2.4
			c-0.2,0-0.3,0-0.5,0c-0.7,0-1.3-0.2-1.9-0.4c-1.2-0.5-1.8-1.5-1.8-2.7c0-5.7,0.7-10.3,2-13.9c0-0.1,0.1-0.2,0.1-0.3l0,0
			c0,0-0.5-0.1-2.1-0.1c-6.6,0-12.7,4-18.1,12c-4.8,7.1-8,15.6-9.5,25.1c-0.5,3.1-0.8,6.1-0.8,8.7c0,4.8,0.9,8.7,2.6,11.6
			c1.6,2.6,3.6,3.8,6.4,3.8c4,0,7.4-2.3,10.3-7.1c2-3.2,3-6,3.1-8.4h-1.5l0.7-2.5c0.6-2.1,2.1-3.3,4.3-3.3c1,0,4.2,0.4,4.2,5.2
			c0,4.4-1.9,9.2-5.7,14C96.1,219.3,90.6,222.3,84.3,222.3z"/>
		<path class="st2" d="M104.8,152.4c-7.4,0-13.9,4.3-19.8,12.9c-5,7.4-8.3,16.1-9.8,25.9c-0.5,3.3-0.8,6.2-0.8,9
			c0,5.2,1,9.4,2.9,12.6s4.6,4.8,8.1,4.8c4.7,0,8.7-2.7,12-8.1c2.2-3.6,3.4-6.8,3.4-9.6c0-1.2-0.3-1.8-1-1.8
			c0.3-1.2,1.1-1.8,2.4-1.8c1.5,0,2.2,1.1,2.2,3.2c0,4-1.8,8.3-5.3,12.8c-4.2,5.4-9.1,8.1-14.8,8.1c-7.1,0-11.9-3.5-14.4-10.6
			c-1.2-3.3-1.8-7.1-1.8-11.2c0-4.2,0.7-8.9,2.1-14c2.7-10.2,7.2-18.7,13.5-25.5s13.3-10.2,21-10.2c1.1,0,1.8,0.3,2.3,1
			s0.7,1.4,0.6,2v1C107.2,152.4,106.2,152.4,104.8,152.4z M109.6,169.4c0,0.2-0.2,0.3-0.7,0.4c-0.5,0.1-0.9,0-1.4-0.2
			s-0.7-0.5-0.7-0.9c0-5.4,0.6-9.8,1.8-13.2c1.2-3.3,2.8-5,4.8-5c0.5,0,1,0.2,1.4,0.6s0.6,0.9,0.6,1.5c-2.5,2.5-4.2,6-5.2,10.7
			C109.8,165.2,109.6,167.2,109.6,169.4z"/>
		<path class="st2" d="M121.5,213.2c-5.4,0-11.8-2.7-11.8-15.5c0-5.4,1.4-10.8,4.1-16.1c3.6-7.1,8.1-10.7,13.4-10.7
			c0.7,0,1.4,0.1,1.9,0.4c-0.5-1-0.7-1.9-0.7-2.6c0-0.9,0.3-2.2,1.6-3.5c1.1-1.1,2.2-1.6,3.5-1.6c2.7,0,4.2,2.8,4.7,3.8
			c0.9,1.8,1.6,3.7,2,5.9c1.2,0.7,2.1,0.9,2.5,0.9c1.1,0,1.7-0.2,2-0.4l3-1.7v3.5c0,1.2-0.5,2.4-1.3,3.3c-0.9,1-2.3,1.5-4,1.5
			c-0.6,0-1.3-0.1-1.9-0.2c-0.3,4.4-1,8.9-2.3,13.4c-1.6,5.4-3.8,10-6.6,13.7C128.5,211.2,125.1,213.2,121.5,213.2z M129.6,176.8
			c-2.5,0-4.8,2.3-6.9,6.9c-2.3,5.1-3.5,10.2-3.5,15.1c0,5,1.1,7.5,3.2,7.5c1.2,0,2.8-1.3,4.5-3.7c2-2.8,3.7-6.6,5-11.3
			c1.3-4.7,2-9.4,2-14.2c-0.8-0.6-1.6-1.3-2.2-2l0.4,1.6L129.6,176.8L129.6,176.8z"/>
		<path class="st2" d="M121.5,211.2c-6.6,0-9.8-4.5-9.8-13.5c0-5.1,1.3-10.1,3.8-15.2c3.3-6.4,7.1-9.6,11.6-9.6
			c0.6,0,1.2,0.2,1.6,0.5c0.4,0.3,0.7,0.8,0.9,1.4c-3.4,0-6.3,2.7-8.7,8.1c-2.5,5.4-3.7,10.7-3.7,15.9c0,6.3,1.7,9.5,5.2,9.5
			c2,0,4-1.5,6.2-4.5c2.1-3,3.9-7,5.3-11.9c1.4-4.9,2.1-9.8,2.1-14.8v-1c-1.7-1.1-3-2.4-4.1-4s-1.6-2.8-1.6-3.5s0.3-1.5,1-2.1
			c0.7-0.7,1.3-1,2-1c1,0,2,0.9,3,2.7s1.6,3.9,2,6.2c1.7,1.1,3.1,1.7,4.4,1.7c1.3,0,2.3-0.2,3-0.6c0,0.7-0.3,1.4-0.8,2
			s-1.4,0.9-2.5,0.9s-2.4-0.3-3.8-0.8c-0.1,5.1-0.8,10.3-2.3,15.4c-1.5,5.2-3.6,9.5-6.2,13C127.3,209.4,124.5,211.2,121.5,211.2z"/>
		<path class="st2" d="M141.4,237.4c-1.8,0-6.1-0.7-6.1-6.9c0-2.5,0.7-5.9,2.3-10.1c1.5-4.1,2.9-7.6,4.4-10.6
			c2.5-4.8,4.3-8.3,5.5-10.3c1-9.5,2-16.8,2.8-21.8c-0.5,0-0.9,0-1.4,0c-2.2,0-3.8-1.3-4.3-3.6v-0.2v-0.2c0-2.9,1.7-3.6,2.5-3.8
			l1.4-0.3l0.5,0.7c0.2,0,0.5,0,1,0c0.7,0,1.4,0,2,0c3.7-16,10.3-24,19.4-24c1,0,1.9,0.3,2.5,0.8c1.3-2,2.9-3,4.9-3c1.5,0,3,1,3,3.2
			v0.6l-0.3,0.5c-0.4,0.6-0.7,1.1-1.1,1.6c-0.3,0.4-0.6,0.9-0.9,1.5c-0.3,0.6-0.7,1.3-1,2.1c-0.4,0.8-0.7,1.5-1,2.3
			c-0.6,1.5-0.9,3-0.9,4.4c0,2-1.4,3-2.7,3c-0.5,0-2.9-0.2-3-3.5c0-2.6,0.3-5.1,0.9-7.4c-2.6,0.2-4.6,1.8-6.3,4.7
			c-1.8,3.1-3.3,7.4-4.5,12.7c4.9-0.4,7.9-0.5,9.1-0.5c0.8,0,1.5,0.3,2,0.9c0.4,0.4,0.8,1.2,0.6,2.4c-0.2,1.3-1.2,2.7-3.6,2.7
			c-0.5,0-2.3,0.2-9.4,1.3c-0.6,3.8-1.3,9.1-1.9,15.7c-0.8,7.6-1.4,13.3-1.9,17.2c-0.5,4-1.1,7.5-1.7,10.6c-0.7,3.1-1.5,5.9-2.4,8.5
			C149.3,234.4,145.9,237.4,141.4,237.4z M145.8,216.3c-1,2.4-1.7,4.1-2.1,5.3c-1.7,5.4-2.1,7.9-2.1,8.9c0,0.3,0,0.5,0,0.6
			c0.9-0.2,1.5-2.1,1.7-2.7c0.9-2.9,1.6-6,2-9.2C145.5,218.3,145.6,217.3,145.8,216.3z"/>
		<path class="st2" d="M141.4,235.4c-2.7,0-4.1-1.6-4.1-4.9c0-2.3,0.7-5.4,2.2-9.4c1.4-4,2.9-7.5,4.3-10.4c2.6-5.1,4.5-8.6,5.6-10.6
			c1.2-11.5,2.3-19.7,3.3-24.6c-1.3,0.2-2.6,0.2-3.8,0.2s-2.1-0.7-2.3-2c0-1.1,0.3-1.7,1-1.8c0.2,0.3,1,0.5,2.3,0.5s2.5-0.1,3.6-0.2
			c3.5-15.9,9.4-23.9,17.8-23.9c1.1,0,1.6,0.4,1.5,1.2c-0.1,0.5-0.2,0.8-0.6,0.8c-3.6,0-6.5,1.9-8.7,5.7s-3.9,9.1-5.3,15.9
			c6.3-0.5,10.2-0.7,11.6-0.7c0.5,0,0.7,0.3,0.6,1c-0.1,0.6-0.6,1-1.6,1s-4.7,0.5-11.1,1.6c-0.7,3.9-1.4,9.7-2.2,17.2
			s-1.4,13.3-1.9,17.2s-1,7.4-1.7,10.4c-0.6,3-1.4,5.7-2.3,8.2C147.6,232.9,144.9,235.4,141.4,235.4z M141.5,233.2
			c1.7,0,2.9-1.4,3.8-4.2c1-3,1.7-6.2,2.1-9.5c0.6-5,1.2-10.1,1.7-15.3c-4,8.5-6.4,14.1-7.3,16.8c-1.4,4.6-2.2,7.8-2.2,9.5
			S140.3,233.2,141.5,233.2z M173.6,161.3c-0.6,0-1-0.5-1-1.6c0-3.4,0.6-6.5,1.7-9.3c1.1-2.8,2.6-4.2,4.3-4.2c0.6,0,1,0.4,1,1.2
			c-0.4,0.6-0.7,1.1-1,1.6s-0.7,1-1,1.7c-0.3,0.6-0.7,1.4-1.1,2.2s-0.7,1.6-1,2.4c-0.7,1.8-1,3.5-1,5.1
			C174.3,160.9,174.1,161.3,173.6,161.3z"/>
		<path class="st2" d="M166.3,237.4c-1.8,0-6.1-0.7-6.1-6.9c0-2.5,0.7-5.9,2.3-10.1c1.5-4.1,2.9-7.6,4.4-10.6
			c2.5-4.8,4.3-8.3,5.5-10.3c1-9.5,2-16.8,2.8-21.8c-0.5,0-0.9,0-1.4,0c-2.2,0-3.8-1.3-4.3-3.6v-0.2v-0.2c0-2.9,1.7-3.6,2.5-3.8
			l1.4-0.3l0.5,0.7c0.2,0,0.5,0,1,0c0.7,0,1.4,0,2,0c3.7-16,10.3-24,19.4-24c1,0,1.9,0.3,2.5,0.8c1.3-2,2.9-3,4.9-3c1.5,0,3,1,3,3.2
			v0.6l-0.3,0.5c-0.4,0.6-0.7,1.1-1.1,1.6c-0.3,0.4-0.6,0.9-0.9,1.5c-0.3,0.6-0.7,1.3-1,2.1c-0.4,0.8-0.7,1.5-1,2.3
			c-0.6,1.5-0.9,3-0.9,4.4c0,2-1.4,3-2.7,3c-0.5,0-2.9-0.2-3-3.5c0-2.6,0.3-5.1,0.9-7.4c-2.6,0.2-4.6,1.8-6.3,4.7
			c-1.8,3.1-3.3,7.4-4.5,12.7c4.9-0.4,7.9-0.5,9.1-0.5c0.8,0,1.5,0.3,2,0.9c0.4,0.4,0.8,1.2,0.6,2.4c-0.2,1.3-1.2,2.7-3.6,2.7
			c-0.5,0-2.3,0.2-9.4,1.3c-0.6,3.8-1.3,9.1-1.9,15.7c-0.8,7.6-1.4,13.3-1.9,17.2c-0.5,4-1.1,7.5-1.7,10.6c-0.7,3.1-1.5,5.9-2.4,8.5
			C174,234.4,170.8,237.4,166.3,237.4z M170.5,216.3c-1,2.4-1.7,4.1-2.1,5.3c-1.7,5.4-2.1,7.9-2.1,8.9c0,0.3,0,0.5,0,0.6
			c0.9-0.2,1.5-2.1,1.7-2.7c0.9-2.9,1.6-6,2-9.2C170.3,218.3,170.4,217.3,170.5,216.3z"/>
		<path class="st2" d="M166.3,235.4c-2.7,0-4.1-1.6-4.1-4.9c0-2.3,0.7-5.4,2.2-9.4c1.4-4,2.9-7.5,4.3-10.4c2.6-5.1,4.5-8.6,5.6-10.6
			c1.2-11.5,2.3-19.7,3.3-24.6c-1.3,0.2-2.6,0.2-3.8,0.2s-2.1-0.7-2.3-2c0-1.1,0.3-1.7,1-1.8c0.2,0.3,1,0.5,2.3,0.5s2.5-0.1,3.6-0.2
			c3.5-15.9,9.4-23.9,17.8-23.9c1.1,0,1.6,0.4,1.5,1.2c-0.1,0.5-0.2,0.8-0.6,0.8c-3.6,0-6.5,1.9-8.7,5.7s-3.9,9.1-5.3,15.9
			c6.3-0.5,10.2-0.7,11.6-0.7c0.5,0,0.7,0.3,0.6,1c-0.1,0.6-0.6,1-1.6,1s-4.7,0.5-11.1,1.6c-0.7,3.9-1.4,9.7-2.2,17.2
			s-1.4,13.3-1.9,17.2s-1,7.4-1.7,10.4c-0.6,3-1.4,5.7-2.3,8.2C172.4,232.9,169.8,235.4,166.3,235.4z M166.3,233.2
			c1.7,0,2.9-1.4,3.8-4.2c1-3,1.7-6.2,2.1-9.5c0.6-5,1.2-10.1,1.7-15.3c-4,8.5-6.4,14.1-7.3,16.8c-1.4,4.6-2.2,7.8-2.2,9.5
			S165,233.2,166.3,233.2z M198.4,161.3c-0.6,0-1-0.5-1-1.6c0-3.4,0.6-6.5,1.7-9.3c1.1-2.8,2.6-4.2,4.3-4.2c0.6,0,1,0.4,1,1.2
			c-0.4,0.6-0.7,1.1-1,1.6s-0.7,1-1,1.7c-0.3,0.6-0.7,1.4-1.1,2.2s-0.7,1.6-1,2.4c-0.7,1.8-1,3.5-1,5.1
			C199.1,160.9,198.9,161.3,198.4,161.3z"/>
		<path class="st2" d="M205.8,215.1c-6.5,0-10.9-3.3-12.7-9.4c-0.5-2-0.8-4.1-0.8-6.2c0-3.8,0.9-8,2.6-12.4
			c2.8-6.8,6.7-11.8,11.6-14.8c2.8-1.7,5.8-2.5,8.7-2.5c3,0,8.1,1.2,8.1,9.1c0,3.1-1,6.3-3,9.6c-3.5,5.6-8.2,8.4-14,8.4
			c-1.1,0-2.1-0.2-2.9-0.6c-0.4-0.2-0.8-0.4-1.1-0.7c-0.2,1.6-0.4,3.2-0.4,4.9c0,4.4,1.1,7,3.2,7.7c0.3,0.1,0.7,0.2,1.6,0.2
			c0.6,0,1.3-0.2,2.1-0.5c0.8-0.4,1.5-0.8,2-1.3c1.2-1.1,2.2-2.4,3-3.7c0.6-1.1,1.6-1.7,3-1.7c1,0,2.1,0.1,2.8,1
			c0.4,0.5,0.6,1.2,0.5,1.8v0.1v0.1c-0.2,0.6-0.5,1.5-2.1,3.6c-1.1,1.5-2.1,2.7-3.1,3.6c-1,1-2.4,1.8-4,2.6
			C209.3,214.7,207.5,215.1,205.8,215.1z M214.8,175.7c-2.7,0-5.4,2.4-8.1,7.2c-1.5,2.7-2.6,5.5-3.4,8.3c3.1,0,5.9-1.9,8.7-5.7
			c2.3-3.2,3.5-6,3.5-8.5C215.3,175.7,215.1,175.7,214.8,175.7z"/>
		<path class="st2" d="M215.3,171.7c4.1,0,6.1,2.4,6.1,7.1c0,2.7-0.9,5.6-2.7,8.6c-3.1,5-7.2,7.4-12.3,7.4c-0.8,0-1.5-0.1-2-0.4
			c-0.5-0.3-0.9-0.7-1.2-1.2c3.8,0,7.3-2.2,10.4-6.6c2.6-3.5,3.8-6.7,3.8-9.7c0-2.2-0.9-3.3-2.6-3.3c-3.5,0-6.8,2.7-9.8,8.2
			c-3.3,6-4.9,12.1-4.9,18.4c0,5.3,1.5,8.5,4.6,9.6c0.6,0.2,1.3,0.3,2.2,0.3s1.9-0.2,2.9-0.7s1.9-1,2.6-1.6c1.4-1.3,2.5-2.7,3.4-4.2
			c0.2-0.4,0.6-0.6,1.2-0.6c1,0,1.4,0.2,1.4,0.5c-0.2,0.6-0.8,1.6-1.8,3s-2,2.5-2.9,3.3s-2,1.6-3.4,2.2c-1.4,0.7-2.8,1-4.3,1
			c-5.7,0-9.3-2.7-10.8-8c-0.5-1.8-0.7-3.7-0.7-5.6c0-3.6,0.8-7.5,2.5-11.7c2.6-6.4,6.2-11,10.8-13.8
			C210.1,172.4,212.6,171.7,215.3,171.7z"/>
		<path class="st2" d="M236.9,215.1c-6.5,0-10.9-3.3-12.7-9.4c-0.5-2-0.8-4.1-0.8-6.2c0-3.8,0.9-8,2.6-12.4
			c2.8-6.8,6.7-11.8,11.6-14.8c2.8-1.7,5.8-2.5,8.7-2.5c3,0,8.1,1.2,8.1,9.1c0,3.1-1,6.3-3,9.6c-3.5,5.6-8.2,8.4-14,8.4
			c-1.1,0-2.1-0.2-2.9-0.6c-0.4-0.2-0.8-0.4-1.1-0.7c-0.2,1.6-0.4,3.2-0.4,4.9c0,4.4,1.1,7,3.2,7.7c0.3,0.1,0.7,0.2,1.6,0.2
			c0.6,0,1.3-0.2,2.1-0.5c0.8-0.4,1.5-0.8,2-1.3c1.2-1.1,2.2-2.4,3-3.7c0.6-1.1,1.6-1.7,3-1.7c1,0,2.1,0.1,2.8,1
			c0.4,0.5,0.6,1.2,0.5,1.8v0.1v0.1c-0.2,0.6-0.5,1.5-2.1,3.6c-1.1,1.5-2.1,2.7-3.1,3.6c-1,1-2.4,1.8-4,2.6
			C240.4,214.7,238.8,215.1,236.9,215.1z M245.8,175.7c-2.7,0-5.4,2.4-8.1,7.2c-1.5,2.7-2.6,5.5-3.4,8.3c3.1,0,5.9-1.9,8.7-5.7
			c2.3-3.2,3.5-6,3.5-8.5C246.5,175.7,246.3,175.7,245.8,175.7z"/>
		<path class="st2" d="M246.4,171.7c4.1,0,6.1,2.4,6.1,7.1c0,2.7-0.9,5.6-2.7,8.6c-3.1,5-7.2,7.4-12.3,7.4c-0.8,0-1.5-0.1-2-0.4
			c-0.5-0.3-0.9-0.7-1.2-1.2c3.8,0,7.3-2.2,10.4-6.6c2.6-3.5,3.8-6.7,3.8-9.7c0-2.2-0.9-3.3-2.6-3.3c-3.5,0-6.8,2.7-9.8,8.2
			c-3.3,6-4.9,12.1-4.9,18.4c0,5.3,1.5,8.5,4.6,9.6c0.6,0.2,1.3,0.3,2.2,0.3s1.9-0.2,2.9-0.7s1.9-1,2.6-1.6c1.4-1.3,2.5-2.7,3.4-4.2
			c0.2-0.4,0.6-0.6,1.2-0.6c1,0,1.4,0.2,1.4,0.5c-0.2,0.6-0.8,1.6-1.8,3s-2,2.5-2.9,3.3s-2,1.6-3.4,2.2c-1.4,0.7-2.8,1-4.3,1
			c-5.7,0-9.3-2.7-10.8-8c-0.5-1.8-0.7-3.7-0.7-5.6c0-3.6,0.8-7.5,2.5-11.7c2.6-6.4,6.2-11,10.8-13.8
			C241.3,172.4,243.8,171.7,246.4,171.7z"/>
	</g>
	<g>
		<path class="st2" d="M23,133.2c-8.9,0-15.2-3.1-18.9-9.3c-1.7-3-2.6-6.2-2.6-9.6c0-1.8,0.3-3.7,0.8-5.6c1.4-5,4.1-8.6,8-10.5
			C12,97.4,13.6,97,15,97c3.6,0,4.7,1.8,5,2.9l0.9,3.2h-2.7c-2.9,0-5.2,1.5-6.9,4.7c-1.2,2.2-1.8,4.2-1.8,5.9c0,7,2.7,11.3,8.2,13
			c1.5,0.5,3.2,0.7,5.1,0.7c3.3,0,6.2-0.8,8.8-2.5c2.7-1.8,4.9-3.7,6.4-5.8c1.6-2.1,3.1-5.4,4.6-9.8c1.5-4.6,2.6-8.2,3.1-10.6
			c0.5-2.3,1-4.8,1.5-7.5c-5.4,9.1-10.1,13.4-14.4,13.4c-3.7,0-10-1.5-10-11.6c0-3.1,1.3-9.3,4.1-18.8c2.6-9.1,3.9-15.7,3.9-19.7
			c0-2.3-0.5-4.1-1.5-5.4c-0.9-1.2-2.3-1.7-4.4-1.7c-4,0-7,2.3-9,7.1c-1.5,3.5-2.2,7-2.2,10.4c0,1.7,0.2,3.4,0.5,5
			c1.4,6.7,4.4,6.7,5.5,6.7h3.2l-1.4,2.9c-1,1.9-2.5,2.2-3.3,2.2c-4,0-9.2-1.8-11.3-10.7c-0.5-2-0.8-4.1-0.8-6.2
			c0-4.4,1.1-8.9,3.3-13.3c3.5-6.8,8.7-10.2,15.5-10.2c5.2,0,9.2,1.6,11.7,4.6c2.4,2.9,3.6,6.8,3.6,11.3c0,4.4-1.2,11-3.8,20.3
			c-2.4,8.8-3.6,14.8-3.6,17.6c0,2.6,0.8,2.6,1.1,2.6c0.1,0,1.7-0.2,5.7-6.7c5.1-7.9,9.7-16.7,13.4-26c0.7-1.7,2.7-6.9,6.9-6.9
			c2.3,0,3.8,1.5,3.8,3.8v0.4l-0.2,0.4c-1.8,4.4-3.6,11.9-5.5,22.4c-2.2,12.8-4.5,21.7-6.9,27.3c-1,2.4-2.5,5.1-4.2,7.8
			c-1.8,2.9-3.8,5.2-6,6.9s-4.8,3.1-7.8,4.3C30,132.6,26.6,133.2,23,133.2z"/>
		<path class="st2" d="M23,129.4c3.7,0,7-1,9.9-2.9s5.2-4,6.9-6.2s3.3-5.7,4.9-10.4c1.5-4.7,2.6-8.3,3.2-10.8
			c0.6-2.5,1.1-5.2,1.7-8.2c0.6-2.9,0.9-4.5,0.9-4.7c0.1-0.2,0.1-0.5,0.2-0.8c0.1-0.3,0.1-0.7,0.2-1.3c0.1-0.6,0.3-1.7,0.6-3.3h-0.6
			c-7.5,14.5-13.5,21.8-18.1,21.8c-5.3,0-8-3.2-8-9.6c0-2.9,1.3-9,4-18.3s4-16.1,4-20.3c0-2.7-0.6-4.9-1.9-6.6
			c-1.3-1.7-3.2-2.5-6-2.5c-4.9,0-8.5,2.8-10.9,8.3c-1.6,3.7-2.4,7.5-2.4,11.2c0,1.8,0.2,3.6,0.6,5.4c1.2,5.5,3.7,8.3,7.4,8.3
			c-0.4,0.7-0.9,1.1-1.5,1.1c-4.8,0-7.9-3-9.4-9.1c-0.4-1.8-0.6-3.8-0.6-5.7c0-4.1,1-8.2,3.1-12.4c3.1-6.1,7.7-9.1,13.7-9.1
			c4.6,0,8,1.3,10.1,3.9c2.1,2.6,3.2,5.9,3.2,10.1c0,4.1-1.2,10.7-3.7,19.8c-2.5,9-3.7,15.1-3.7,18.2s1,4.6,3.1,4.6
			c1.8,0,4.2-2.5,7.4-7.6c5.2-8.1,9.8-16.8,13.6-26.3c1.5-3.7,3.2-5.6,5-5.6c1.2,0,1.8,0.6,1.8,1.8c-1.9,4.4-3.8,12-5.6,22.7
			c-2.2,12.5-4.5,21.4-6.8,26.8c-1,2.3-2.4,4.9-4.1,7.6c-1.7,2.7-3.6,4.8-5.6,6.4c-2,1.6-4.4,2.9-7.3,4s-6,1.6-9.3,1.6
			c-8.2,0-13.9-2.8-17.2-8.3c-1.5-2.7-2.3-5.5-2.3-8.6c0-1.7,0.2-3.4,0.7-5.1c1.2-4.5,3.5-7.5,7-9.2c1.4-0.7,2.7-1,3.8-1
			c1.8,0,2.8,0.5,3.1,1.5l0.2,0.6c-3.7,0-6.6,1.9-8.6,5.8c-1.3,2.5-2,4.8-2,6.9c0,7.9,3.2,12.9,9.6,14.9
			C19,129.1,20.9,129.4,23,129.4z"/>
		<path class="st2" d="M74.8,107.9c-5.4,0-11.8-2.7-11.8-15.5c0-5.4,1.4-10.8,4.1-16.1c3.6-7.1,8.1-10.7,13.4-10.7
			c0.7,0,1.4,0.1,1.9,0.4c-0.5-1-0.7-1.9-0.7-2.6c0-0.9,0.3-2.2,1.6-3.5c1.1-1.1,2.2-1.6,3.5-1.6c2.7,0,4.2,2.8,4.7,3.8
			c0.9,1.8,1.6,3.7,2,5.9c1.2,0.7,2.1,0.9,2.5,0.9c1.1,0,1.7-0.2,2-0.4l3-1.7v3.4c0,1.2-0.5,2.4-1.3,3.3c-0.9,1-2.3,1.5-4,1.5
			c-0.6,0-1.3-0.1-1.9-0.2c-0.3,4.4-1,8.9-2.3,13.4c-1.6,5.4-3.8,10-6.6,13.7C81.8,105.8,78.4,107.9,74.8,107.9z M82.9,71.5
			c-2.5,0-4.8,2.3-6.9,6.9c-2.3,5.1-3.5,10.2-3.5,15.1c0,5,1.1,7.5,3.2,7.5c1.2,0,2.8-1.3,4.5-3.7c2-2.8,3.7-6.6,5-11.3
			c1.3-4.7,2-9.4,2-14.2c-0.8-0.6-1.6-1.3-2.2-2l0.4,1.6L82.9,71.5L82.9,71.5z"/>
		<path class="st2" d="M74.8,105.9c-6.6,0-9.8-4.5-9.8-13.5c0-5.1,1.3-10.1,3.8-15.2c3.3-6.4,7.1-9.6,11.6-9.6
			c0.6,0,1.2,0.2,1.6,0.5s0.7,0.8,0.9,1.4c-3.4,0-6.3,2.7-8.7,8.1c-2.5,5.4-3.7,10.7-3.7,15.9c0,6.3,1.7,9.5,5.2,9.5
			c2,0,4-1.5,6.2-4.5c2.1-3,3.9-7,5.3-11.9s2.1-9.8,2.1-14.8v-1c-1.7-1.1-3-2.4-4.1-4s-1.6-2.8-1.6-3.5s0.3-1.5,1-2.1
			c0.7-0.7,1.3-1,2-1c1,0,2,0.9,3,2.7c1,1.8,1.6,3.9,2,6.2c1.7,1.1,3.1,1.7,4.4,1.7s2.3-0.2,3-0.6c0,0.7-0.3,1.4-0.8,2
			S96.8,73,95.8,73s-2.4-0.3-3.8-0.8c-0.1,5.1-0.8,10.3-2.3,15.4c-1.5,5.2-3.6,9.5-6.2,13C80.6,104.1,77.8,105.9,74.8,105.9z"/>
		<path class="st2" d="M125.8,115.9c-2.1,0-4.9-0.9-6.8-5.2c-1.3-2.9-2-6.5-2-10.7c0-1.6,0-3.3,0.1-5c-5.2,8-9.3,11.7-12.9,11.7
			c-3,0-8.2-1.5-8.2-11.4c0-6.5,1.4-13.1,4.2-19.5c3.4-8,6.4-11.5,9.6-11.5c1.6,0,3.4,1,3.4,3.8v0.4l-0.1,0.3
			c-2.2,5.8-4.1,11.6-5.7,17.1c-1.5,5.4-2.3,9.4-2.3,12c0,1,0.1,1.5,0.2,1.9c0.4-0.3,1.1-0.9,2.2-2.3c1.7-2.1,3.5-4.7,5.3-7.8
			c3.9-6.7,7-12.4,9.1-17.1c2.5-5.6,5.2-8.3,8.3-8.3c2.2,0,3.6,1.5,3.6,3.8v0.5l-0.2,0.4c-3.3,6.6-5.7,14.5-7.1,23.6
			c-0.6,3.6-0.9,7.2-0.9,10.7c0,3.7,0.4,5.1,0.7,5.7l0.1-0.1c0.2-0.2,0.6-0.7,1-1.8c0.3-1.3,1.4-2.1,2.9-2.1c1.2,0,1.9,0.5,2.2,1
			c0.3,0.4,0.7,1.1,0.4,2.3c-0.2,0.6-0.4,1.2-0.7,2c-0.4,0.9-1.1,1.9-2.1,3.2C128.8,115.1,127.3,115.9,125.8,115.9z"/>
		<path class="st2" d="M126.1,111.1c0.6,0,1.2-0.3,1.8-0.8c0.6-0.6,1.1-1.4,1.6-2.6c0.1-0.5,0.4-0.7,1-0.7s0.8,0.2,0.7,0.7
			s-0.3,1.1-0.6,1.8c-0.3,0.7-0.9,1.6-1.8,2.8c-0.9,1.1-1.9,1.7-2.8,1.7c-2.1,0-3.8-1.3-5-4s-1.8-6-1.8-9.9s0.3-8,0.9-12.1h-1
			c-6.5,11.3-11.4,16.9-14.9,16.9c-4.1,0-6.2-3.1-6.2-9.4s1.3-12.5,4-18.8c2.9-6.9,5.5-10.3,7.8-10.3c1,0,1.4,0.6,1.4,1.8
			c-2.2,5.9-4.2,11.7-5.8,17.3c-1.6,5.6-2.4,9.8-2.4,12.5s0.6,4.1,1.9,4.1c0.9,0,2.3-1.1,4-3.3c1.8-2.2,3.6-4.9,5.5-8
			c4-6.8,7.1-12.5,9.2-17.3c2.1-4.7,4.3-7.1,6.5-7.1c1.1,0,1.6,0.6,1.6,1.8c-3.4,6.8-5.8,14.9-7.3,24.2c-0.6,3.7-0.9,7.4-0.9,11
			C123.7,108.5,124.5,111.1,126.1,111.1z"/>
		<path class="st2" d="M139.8,105.8c-4.3,0-4.3-6.3-4.3-8.3c0-8.1,0.8-15.5,2.5-22.1c1.2-4.8,3.3-11.2,7.8-11.2
			c2.1,0,3.5,1.5,3.5,3.8v0.3l-0.1,0.3c-1.2,3.8-2.3,7.7-3.1,11.7c2.9-5.2,6.1-9.6,9.4-13.1c3.4-3.7,6.6-5.4,9.6-5.4
			c1,0,2,0.3,2.7,1c0.8,0.7,1.2,1.6,1.2,2.7v0.8l-0.6,0.6c-0.2,0.2-0.6,0.6-1.1,1.4c-0.2,0.3-0.7,1.3-1.9,4.8
			c-0.8,2.6-1.3,5.5-1.3,8.5c0,1.7-1.2,2.6-2.4,2.6c-2.3,0-5-1.5-5-8.6v-0.1c-2.2,3-4.5,6.9-6.9,11.6c-5.6,10.8-6.5,14.6-6.5,15.8
			C143,104.3,141.9,105.8,139.8,105.8z"/>
		<path class="st2" d="M161.4,82.2c-2,0-3-2.2-3-6.6c0-2.5,0.5-4.9,1.4-7c-3.6,3.1-7.7,9-12.2,17.6s-6.7,14.1-6.7,16.8
			c0,0.6-0.4,1-1.3,1c-1.5,0-2.3-2.1-2.3-6.3c0-7.9,0.8-15.1,2.4-21.6c1.6-6.5,3.5-9.7,5.8-9.7c1,0,1.5,0.6,1.5,1.8
			c-2.5,7.8-4.2,15.8-5.3,23.9h0.6c4.3-10,9.1-17.8,14.3-23.4c3-3.2,5.7-4.8,8.2-4.8c0.5,0,1,0.2,1.3,0.5s0.5,0.7,0.5,1.2
			c-0.4,0.4-0.8,0.9-1.4,1.7c-0.5,0.7-1.3,2.5-2.2,5.3s-1.4,5.9-1.4,9.2C161.8,82,161.8,82.2,161.4,82.2z"/>
	</g>
</g>
</svg>
