<?xml version="1.0" encoding="UTF-8"?>
<!DOCTYPE svg PUBLIC "-//W3C//DTD SVG 1.1//EN" "http://www.w3.org/Graphics/SVG/1.1/DTD/svg11.dtd">
<!-- Creator: CorelDRAW X8 -->
<svg xmlns="http://www.w3.org/2000/svg" xml:space="preserve" width="151.342mm" height="108.068mm" version="1.1" style="shape-rendering:geometricPrecision; text-rendering:geometricPrecision; image-rendering:optimizeQuality; fill-rule:evenodd; clip-rule:evenodd"
viewBox="0 0 15134 10807"
 xmlns:xlink="http://www.w3.org/1999/xlink">
 <defs>
  <style type="text/css">
   <![CDATA[
    .fil0 {fill:#1E6436;fill-rule:nonzero}
   ]]>
  </style>
 </defs>
 <g id="Capa_x0020_1">
  <metadata id="CorelCorpID_0Corel-Layer"/>
  <g id="_898057485824">
   <path class="fil0" d="M9810 1725c-6,-46 26,-89 73,-94 46,-6 88,26 94,73l1 9c17,133 33,259 19,386 -1,7 -3,14 -5,20 -43,141 -177,138 -312,136 -32,-1 -64,-2 -95,1l0 0c-132,15 -696,9 -1057,5 -101,-1 -184,-2 -263,-2 -6,0 -12,-1 -18,-2 -51,-8 -118,-5 -187,-1 -43,2 -88,4 -127,4 -4,0 -9,0 -13,-1 -53,-6 -108,-41 -145,-96 -28,-42 -47,-97 -49,-162 -8,-47 -12,-126 -14,-207 -3,-90 -1,-183 4,-233l0 -5 0 0c6,-40 5,-81 4,-123 -1,-44 -2,-89 3,-138l4 -35c17,-130 19,-147 168,-195 8,-3 16,-4 24,-4 40,-3 149,-4 237,9 71,10 137,31 169,70 2,2 4,5 6,8 19,27 30,64 35,102 7,43 6,93 2,123l0 0c-5,39 -9,84 -12,128 -3,40 -4,81 -4,118 0,3 0,6 -1,9 0,22 -1,39 -3,56 -4,71 -8,139 55,152l20 1c297,12 568,23 880,23 25,-3 49,-2 73,-1 14,1 28,1 40,1 19,-1 34,-16 31,-100 -13,-90 -13,-222 -12,-364 0,-142 1,-295 -13,-424 -5,-46 28,-88 75,-92 46,-5 88,28 92,75 15,134 15,294 14,441 0,136 0,261 12,342l0 0c0,3 0,6 0,9 11,234 -80,276 -192,281 -18,1 -36,0 -54,-1 -17,0 -34,-1 -47,0 -5,1 -11,2 -16,2 -303,0 -583,-11 -890,-24l-22 -1c-5,0 -10,0 -15,-1 -218,-36 -209,-180 -199,-330 1,-17 2,-35 3,-49l0 -5c0,-38 2,-82 5,-128 3,-50 7,-98 12,-138l0 0 1 -3c2,-16 2,-47 -2,-77 -2,-13 -3,-23 -4,-25l0 -1c-1,-1 -28,-5 -63,-10 -76,-11 -165,-11 -192,-9 -40,13 -41,19 -45,53l-4 32c-4,40 -3,79 -2,117 1,50 2,100 -6,151 -4,46 -5,128 -3,209 2,74 6,147 13,187l0 0c1,5 1,10 1,15 0,32 9,58 21,77 9,13 17,21 23,22 41,0 78,-2 114,-4 78,-4 152,-8 219,3 34,0 135,1 259,2 356,5 914,11 1034,-4 3,0 6,-1 9,-1 34,-2 72,-2 110,-1 68,1 134,3 147,-15 10,-106 -4,-218 -19,-337l-1 -9zm-4491 160c-8,-45 23,-89 69,-97 46,-7 90,24 97,70 11,61 8,113 5,170 -2,24 -3,49 -3,81 3,10 8,17 16,21 22,10 56,12 101,8 5,0 9,0 14,1l119 4c102,3 214,7 319,7l2 0c180,-9 702,-16 989,-20 96,-2 165,-3 186,-3 54,-11 58,-35 60,-51l3 -14c14,-74 11,-226 9,-360 -2,-74 -3,-143 -1,-194l0 -4 0 0c3,-40 8,-77 11,-109 4,-29 7,-55 8,-75l0 -1c3,-45 -12,-62 -109,-68 -2,-1 -5,-1 -8,-1 -6,0 -29,1 -58,3 -62,4 -137,10 -137,10l-4 1c-66,23 -64,149 -64,210 0,18 1,32 -1,45 -3,52 -4,98 -5,140 -2,199 -4,342 -205,357 -110,17 -426,15 -640,13 -28,0 -55,0 -133,0 -6,0 -13,-1 -19,-2l-29 -4c-71,-7 -155,-16 -212,-87 -44,-55 -61,-186 -65,-336 -5,-222 16,-496 28,-586 5,-47 47,-80 94,-74 46,6 79,48 73,94 -11,88 -31,352 -26,563 2,117 11,212 29,234 12,15 58,20 97,25 11,1 22,2 34,4l130 1c209,1 520,4 615,-12 3,-1 6,-1 9,-1 49,-3 50,-82 52,-191 1,-48 1,-100 5,-150l0 0 1 -7 0 -24c-1,-103 -4,-316 184,-374l7 -2c4,-1 100,-11 172,-16 32,-2 63,-3 82,-2l6 0c241,17 277,79 266,248l0 2c-2,26 -5,53 -9,83 -3,30 -7,64 -11,103 -1,47 0,112 1,181 3,143 5,305 -12,394 -1,3 -1,7 -1,10 -10,61 -26,161 -203,191 -3,0 -6,1 -10,1 -8,0 -85,1 -198,3 -284,4 -799,11 -982,21 -4,0 -7,0 -11,0 -92,0 -214,-4 -325,-8l-118 -4c-70,5 -131,-1 -180,-24 -60,-28 -99,-74 -113,-145 -1,-7 -2,-14 -2,-22 0,-32 2,-65 3,-97 3,-48 5,-90 -2,-134zm3642 -1531c42,20 61,70 41,112 -19,42 -69,61 -112,41 -106,-49 -554,-73 -1038,-77 -597,-6 -1237,17 -1358,57 -9,2 -18,4 -26,4l0 0 -49 0c-46,0 -84,-38 -84,-85 0,-46 38,-84 84,-84l38 0c165,-42 805,-67 1396,-61 504,5 979,33 1108,93zm-2021 -117c-47,0 -85,-38 -85,-85 0,-46 38,-84 85,-84 52,0 140,-13 225,-26 55,-8 110,-17 159,-21 58,-16 176,-21 303,-21 188,0 406,11 464,21l0 0c33,5 68,10 111,15 36,4 72,7 106,7 47,0 85,38 85,85 0,47 -38,85 -85,85 -41,0 -84,-4 -126,-9 -36,-4 -78,-11 -117,-17 -51,-8 -256,-18 -438,-18 -121,0 -228,4 -262,15 -5,2 -12,3 -18,4 -39,3 -98,12 -158,21 -91,14 -186,28 -249,28zm-713 470c-10,5 -20,9 -29,13 -24,11 -40,18 -58,130 -3,86 -6,167 -10,247 -7,162 -14,323 -14,496l1 0 190 0c6,-5 8,-9 13,-17l3 -5 0 -583c0,-11 2,-22 6,-31 1,-6 3,-13 4,-20 17,-75 33,-143 159,-143l1901 0c4,0 7,0 11,1l54 3c201,9 421,19 454,225 1,4 1,9 1,13l0 0c0,119 1,179 2,239 1,88 2,177 2,252l0 12c0,21 -8,40 -21,54l1 1c43,3 77,5 107,5 33,0 66,-1 107,-5 21,-2 -21,-10 -21,-26 0,-22 0,-47 2,-68l1 -5c8,-77 6,-194 4,-293 -1,-48 -2,-92 -2,-105 0,-4 1,-8 1,-11 6,-84 9,-146 10,-198 1,-40 2,-86 2,-136 -48,-43 -487,-36 -707,-32l-93 1c-4,0 -7,0 -11,-1 -325,-24 -582,-24 -721,-23l0 0 -18 0c-7,0 -14,-1 -21,-3 -154,-21 -642,-15 -962,-12 -110,2 -203,3 -228,3 -24,0 -41,4 -59,9 -19,5 -38,10 -61,13zm-97 -141c8,-4 17,-8 26,-13 12,-7 25,-12 39,-13 20,-1 36,-5 51,-9 30,-8 59,-15 101,-15 80,0 147,-1 226,-2 325,-4 820,-10 988,14l15 0 0 0c143,0 408,0 734,24 41,0 63,0 88,-1 256,-4 763,-12 862,132 10,14 17,31 17,50 0,47 0,92 -2,160 -2,59 -5,124 -10,204 0,47 0,74 1,103 2,105 4,229 -5,314l0 0c-2,22 -2,39 -2,55 -1,104 -2,180 -131,193l-1 0c-46,4 -85,6 -124,6 -41,-1 -77,-3 -120,-6l0 0 -5 -1c-132,-16 -131,-152 -130,-225l0 -9c0,-125 -1,-187 -1,-250 -1,-83 -3,-166 -3,-234 -18,-64 -162,-71 -294,-77 -629,-31 -1322,-3 -1958,-3 -8,0 7,5 6,11 -2,8 -4,16 -6,25l0 594 0 0c0,15 -4,30 -12,43l-13 23c-22,39 -28,49 -79,84 -15,12 -33,19 -53,19l-255 0 0 0c-22,0 -45,-9 -62,-27l-9 -10c-34,-36 -62,-65 -62,-132 0,-165 8,-333 15,-503 4,-85 7,-170 10,-250 0,-4 0,-7 1,-10 33,-210 82,-231 157,-264l0 0zm3847 2404c-6,47 -48,79 -94,73 -47,-5 -79,-48 -73,-94l1 -9c15,-119 29,-231 19,-337 -13,-18 -79,-17 -147,-15 -38,1 -76,1 -110,-1 -3,0 -6,-1 -9,-1 -120,-15 -678,-9 -1034,-5 -124,2 -225,3 -259,3 -67,11 -141,7 -219,3 -36,-2 -73,-4 -114,-4 -6,1 -14,9 -23,22 -12,19 -21,45 -21,77 0,5 0,10 -1,15l0 0c-7,40 -11,113 -13,187 -2,81 -1,163 3,209 8,51 7,100 6,151 -1,38 -2,77 2,117l4 32c4,34 5,40 44,53 28,2 116,2 193,-9 35,-5 62,-9 63,-10l0 -1c1,-2 2,-12 4,-25 4,-30 4,-61 2,-77l-1 -3 0 0c-5,-40 -9,-88 -12,-138 -3,-46 -5,-90 -5,-128l0 -5c-1,-14 -2,-32 -3,-49 -10,-150 -19,-294 199,-330 5,-1 10,-1 15,-1l22 -1c307,-13 587,-24 890,-24 5,0 11,1 16,2 13,1 30,0 47,0 18,-1 36,-2 54,-1 112,5 203,47 192,281 0,3 0,6 0,9l0 0c-12,81 -12,206 -12,342 1,147 1,307 -14,441 -4,47 -46,80 -92,75 -47,-4 -80,-46 -75,-92 14,-129 13,-282 13,-424 -1,-142 -1,-274 12,-364 3,-84 -12,-99 -31,-100 -12,0 -26,0 -40,1 -24,1 -48,2 -73,-1 -312,0 -583,11 -880,23l-20 1c-63,13 -59,81 -55,152 2,17 3,34 3,56 1,3 1,6 1,9 0,37 1,78 4,118 3,44 7,89 12,128l0 0c4,30 5,80 -2,123 -5,38 -16,75 -35,102 -2,3 -4,6 -6,8 -32,39 -98,60 -169,70 -90,13 -202,12 -239,9 -8,0 -15,-2 -22,-4 -149,-48 -152,-65 -168,-195l-4 -35c-5,-49 -4,-94 -3,-138 1,-42 2,-83 -4,-123l0 0 0 -5c-5,-50 -7,-143 -4,-233 2,-81 6,-160 14,-207 2,-65 21,-120 49,-162 37,-55 92,-90 145,-96 4,-1 9,-1 13,-1 39,0 84,2 127,4 69,4 136,7 187,-1 6,-1 12,-2 18,-2 79,0 162,-1 263,-2 361,-4 925,-10 1057,5l0 0c31,3 63,2 95,1 135,-2 269,-5 312,136 2,6 4,13 5,20 14,127 -2,253 -19,386l-1 9zm-1087 1197c43,-20 93,-1 112,41 20,42 1,92 -41,112 -129,60 -604,88 -1108,93 -591,6 -1231,-19 -1396,-61l-38 0c-46,0 -84,-38 -84,-85 0,-46 38,-84 84,-84l49 0 0 0c8,0 17,1 26,4 121,40 761,63 1358,57 484,-4 932,-28 1038,-77zm-1950 439c-47,0 -85,-38 -85,-84 0,-47 38,-85 85,-85 63,0 158,14 249,28 60,9 119,18 158,21 6,1 13,2 18,4 34,11 141,15 262,15 182,0 387,-10 438,-18 39,-6 81,-13 117,-17 42,-5 85,-9 126,-9 47,0 85,38 85,85 0,47 -38,85 -85,85 -34,0 -70,3 -106,7 -43,5 -78,10 -111,15l0 0c-58,10 -276,21 -464,21 -127,0 -245,-5 -303,-21 -49,-4 -104,-13 -159,-21 -85,-13 -173,-26 -225,-26zm-713 -639c-10,-5 -20,-9 -29,-13 -24,-11 -40,-18 -58,-130 -3,-86 -6,-167 -10,-247 -7,-162 -14,-323 -14,-496l1 0 190 0c6,5 8,9 12,17l4 5 0 583c0,11 2,22 6,31 1,6 3,13 4,20 17,75 33,143 159,143l1901 0c4,0 7,0 11,-1l54 -3c201,-9 421,-19 454,-225 1,-4 1,-9 1,-13l0 0c0,-119 1,-179 2,-239 1,-88 2,-177 2,-252l0 -12c0,-21 -8,-40 -21,-54l1 -1c43,-3 77,-5 107,-5 33,0 66,1 107,5 21,2 -21,10 -21,26 0,22 0,47 2,68l1 5c8,77 6,194 4,293 -1,48 -2,92 -2,105 0,4 1,8 1,11 6,84 9,146 10,198 1,40 2,86 2,136 -48,43 -487,36 -707,32l-93 -1c-4,0 -7,0 -11,1 -325,24 -582,24 -721,23l0 0 -19 0c-6,0 -13,1 -20,2 -154,22 -642,16 -962,13 -110,-2 -203,-3 -228,-3 -24,0 -41,-4 -59,-9 -19,-5 -38,-10 -61,-13zm-97 141c8,4 17,8 26,13 12,7 25,12 39,13 20,1 36,5 51,9 30,8 59,15 101,15 80,0 147,1 226,2 325,4 820,10 988,-14l15 0 0 0c143,0 408,0 734,-24 41,0 63,0 88,1 256,4 763,12 862,-132 10,-14 17,-31 17,-50 0,-47 0,-92 -2,-160 -2,-59 -5,-124 -10,-204 0,-47 0,-74 1,-103 2,-105 4,-229 -5,-314l0 0c-2,-22 -2,-39 -2,-55 -1,-104 -2,-180 -131,-193l-1 0c-46,-4 -85,-6 -124,-6 -41,1 -77,3 -120,6l0 0 -5 1c-132,16 -131,152 -130,225l0 9c0,125 -1,187 -1,250 -2,83 -3,166 -3,234 -18,64 -162,71 -294,77 -629,31 -1322,3 -1958,3 -8,0 7,-5 6,-11 -2,-8 -4,-16 -6,-25l0 -594 -1 0c1,-15 -3,-30 -11,-43l-13 -23c-22,-39 -28,-49 -79,-84 -15,-12 -33,-19 -53,-19l-255 0 0 0c-22,0 -45,9 -62,27l-9 9c-34,37 -62,66 -62,133 0,165 8,333 15,503 4,85 7,170 10,250 0,4 0,7 1,10 33,210 82,231 157,264l0 0zm-811 -1319c-8,45 23,89 69,97 46,7 90,-24 97,-70 10,-61 8,-113 4,-170 -1,-24 -2,-49 -2,-81 3,-10 8,-17 16,-21 21,-10 56,-12 101,-8 4,0 9,0 14,-1l118 -4c103,-3 214,-7 320,-7l2 0c180,9 701,16 989,20 96,2 165,3 186,3 53,11 57,35 60,51l2 14c14,74 12,226 9,360 -1,74 -2,143 0,194l0 4 0 0c3,40 7,77 11,109 4,29 7,55 8,75l0 1c3,45 -13,62 -109,68 -3,1 -6,1 -8,1 -6,0 -29,-1 -58,-3 -63,-4 -137,-10 -138,-10l-3 -1c-66,-23 -65,-149 -64,-210 0,-18 0,-32 -1,-45 -4,-52 -4,-98 -5,-140 -3,-199 -5,-342 -205,-357 -110,-17 -426,-15 -640,-13 -28,0 -56,0 -133,0 -7,0 -13,1 -19,2l-29 4c-72,7 -156,16 -212,87 -44,55 -61,186 -65,336 -5,222 16,496 27,586 6,47 48,80 95,74 46,-6 79,-48 73,-94 -11,-88 -31,-352 -27,-563 3,-117 11,-212 29,-234 12,-15 59,-20 98,-25 11,-1 22,-2 34,-4l130 -1c209,-1 520,-4 614,12 3,1 6,1 10,1 49,3 50,82 52,191 0,48 1,100 5,150l0 0 1 7 0 24c-2,103 -4,316 183,374l8 2c3,1 100,11 171,16 33,2 63,3 83,2l5 0c242,-17 278,-79 267,-248l0 -2c-2,-26 -6,-53 -9,-83 -4,-30 -8,-64 -11,-103 -1,-47 0,-112 1,-181 2,-143 5,-305 -12,-394 -1,-3 -1,-7 -2,-10 -10,-61 -25,-161 -202,-191 -3,0 -7,-1 -10,-1 -8,0 -85,-1 -198,-3 -284,-4 -799,-11 -982,-21 -4,0 -7,0 -11,0 -93,0 -214,4 -326,8l-117 4c-71,-5 -132,1 -181,24 -59,28 -98,74 -112,145 -2,7 -3,14 -3,22 0,32 2,65 4,97 3,48 5,90 -2,134z"/>
   <path class="fil0" d="M1483 8248l0 848 0 6c-1,126 -12,233 -35,319 -23,88 -57,158 -101,210 -44,51 -97,87 -161,108 -63,21 -135,30 -215,27 -80,3 -152,-7 -217,-29 -64,-22 -119,-59 -164,-110 -45,-52 -80,-121 -105,-207 -24,-86 -36,-192 -37,-318l0 -6 0 -848 0 0c0,-129 13,-237 37,-323 25,-87 60,-156 105,-208 45,-51 100,-88 164,-110 120,-41 313,-41 432,-2 64,21 117,57 161,108 44,52 78,122 101,210 23,87 35,196 35,325l0 0zm178 2169c-5,-59 -16,-111 -33,-155 -17,-44 -41,-82 -72,-116 -31,-34 -68,-65 -112,-95 -44,-30 -95,-60 -155,-91 34,-13 66,-23 97,-29 31,-7 62,-20 93,-41 150,-80 262,-197 337,-352 52,-108 86,-231 102,-370 16,-302 16,-617 6,-920 -11,-168 -47,-316 -108,-442 -75,-155 -187,-272 -337,-352 -214,-123 -502,-123 -802,-74 -235,52 -406,164 -513,335 -91,145 -143,323 -157,533 -10,303 -10,618 6,920 21,179 71,333 151,461 107,171 278,283 513,335 59,13 119,26 178,39 60,13 115,32 165,58 50,26 92,59 126,100 33,42 55,96 66,163 0,13 0,43 0,89 0,47 0,96 2,148 1,51 2,99 2,143 0,44 -2,70 -4,77l445 0c0,8 1,0 2,-25 1,-24 2,-56 2,-95 0,-36 0,-77 0,-124 0,-44 0,-84 0,-120zm942 -1296l0 -919 -393 0 0 813c0,139 16,264 46,374 31,110 80,204 147,282 67,77 155,137 262,179 107,42 236,63 389,63 276,0 487,-80 634,-241 146,-160 220,-379 220,-657l0 -813 -393 0 0 919c0,114 -11,209 -34,287 -23,77 -55,139 -97,184 -43,46 -93,78 -152,96 -60,18 -125,26 -195,24 -71,2 -133,-7 -188,-26 -55,-19 -100,-52 -137,-97 -36,-46 -63,-107 -82,-183 -18,-76 -27,-171 -27,-285zm1894 -926l-393 0 0 1715 393 0 0 -1715zm-458 -584c0,71 25,131 74,181 49,50 108,75 179,75 30,0 60,-7 90,-20 31,-14 59,-33 84,-57 25,-24 45,-51 60,-82 15,-30 22,-63 22,-97 0,-71 -25,-131 -75,-181 -50,-50 -110,-75 -181,-75 -71,0 -130,25 -179,75 -49,50 -74,110 -74,181zm3247 1387l0 912 392 0 0 -806c0,-139 -15,-264 -46,-374 -30,-111 -79,-205 -147,-282 -67,-77 -154,-137 -261,-179 -107,-43 -237,-64 -389,-64 -144,0 -270,23 -378,67 -108,44 -198,109 -271,193 -66,-80 -153,-141 -260,-183 -107,-42 -238,-63 -393,-63 -275,0 -486,80 -633,241 -147,160 -221,380 -221,657l0 793 393 0 0 -898c0,-114 12,-210 34,-287 23,-78 56,-139 98,-185 42,-45 93,-77 152,-95 59,-19 124,-27 194,-24 71,-3 133,6 187,25 53,20 98,52 134,98 37,45 65,105 84,181 20,75 29,168 29,280l0 905 393 0c0,-207 0,-370 0,-489 0,-118 0,-207 0,-266 0,-59 -1,-98 -2,-116 -1,-18 -1,-32 -1,-41 0,-114 11,-210 34,-287 23,-77 55,-139 97,-185 42,-45 93,-77 152,-95 59,-18 124,-26 195,-24 70,-2 133,6 188,26 54,19 100,51 136,97 37,45 64,106 82,183 19,76 28,171 28,285zm527 61c5,132 24,251 58,356 34,104 87,194 157,268 71,74 161,131 272,171 110,39 244,59 401,59 151,0 278,-20 383,-59 105,-40 191,-97 259,-171 69,-74 120,-164 154,-268 34,-105 54,-224 58,-356 -4,-132 -24,-251 -58,-358 -34,-107 -85,-199 -154,-275 -68,-77 -154,-136 -259,-178 -105,-42 -232,-63 -383,-63 -102,0 -193,12 -271,36 -79,24 -151,52 -217,83l-7 -956 -393 0c0,130 0,262 0,396 0,135 0,264 0,390 0,125 0,243 0,355 0,109 0,206 0,290 0,85 0,152 0,202 0,50 0,76 0,78zm393 -58c0,-114 11,-210 34,-288 23,-79 55,-143 97,-192 43,-49 93,-84 152,-105 60,-22 125,-32 195,-30 71,-2 136,7 195,28 59,20 110,55 152,104 42,49 74,113 97,193 23,80 34,176 34,290l0 120c0,114 -11,209 -34,287 -23,77 -55,139 -97,184 -42,46 -93,78 -152,96 -59,18 -124,26 -195,24 -70,2 -135,-7 -195,-26 -59,-19 -109,-52 -152,-97 -42,-46 -74,-107 -97,-183 -23,-76 -34,-171 -34,-285l0 -120zm3223 902c0,-200 0,-355 0,-464 0,-112 0,-194 0,-246 0,-55 0,-89 0,-103 0,-14 0,-23 0,-27 -5,-132 -24,-251 -59,-355 -34,-105 -86,-195 -157,-269 -70,-74 -161,-131 -271,-170 -111,-40 -244,-60 -402,-60 -150,0 -277,20 -382,60 -105,39 -191,96 -260,170 -68,74 -119,164 -153,269 -35,104 -54,223 -59,355 5,132 24,250 59,355 34,105 85,194 153,268 69,74 155,131 260,169 105,39 232,58 382,58 50,0 98,-5 142,-15 45,-10 86,-29 125,-55 39,-26 77,-62 114,-107 38,-46 76,-104 115,-175l-4 342 0 10 397 0 0 -10zm-393 -895c0,228 -44,403 -132,526 -87,123 -203,182 -347,178 -70,2 -135,-6 -194,-24 -59,-18 -110,-50 -152,-96 -42,-45 -75,-107 -98,-184 -22,-78 -34,-173 -34,-287l0 -120c0,-114 12,-209 34,-287 23,-77 56,-139 98,-184 42,-46 93,-77 152,-96 59,-18 124,-26 194,-24 71,-2 136,7 195,26 59,19 110,52 152,97 42,46 75,107 98,183 22,76 34,171 34,285l0 7zm1989 1278c-4,-53 -14,-98 -29,-137 -15,-39 -36,-73 -63,-102 -27,-30 -60,-58 -99,-84 -39,-26 -84,-53 -137,-80 30,-12 58,-20 86,-26 27,-6 54,-18 82,-36 132,-71 231,-174 297,-311 66,-136 99,-301 99,-495l0 -816 -393 0 0 922c0,114 -10,209 -31,287 -20,77 -50,139 -89,184 -38,46 -85,78 -141,96 -56,18 -119,26 -190,24 -70,2 -134,-7 -191,-26 -57,-19 -105,-52 -145,-97 -40,-46 -71,-107 -93,-183 -21,-76 -32,-171 -32,-285l0 -922 -393 0 0 816c0,232 47,424 142,576 94,151 245,249 453,295 52,11 104,23 157,34 52,12 100,29 145,51 44,23 81,53 111,89 29,37 60,85 58,144 0,42 0,456 0,590l396 0c0,-107 0,-401 0,-508zm2109 -383c0,-200 0,-355 0,-464 0,-112 0,-194 0,-246 0,-55 0,-89 0,-103 0,-14 0,-23 0,-27 -4,-132 -24,-251 -58,-355 -34,-105 -86,-195 -157,-269 -71,-74 -161,-131 -272,-170 -110,-40 -244,-60 -401,-60 -150,0 -278,20 -382,60 -105,39 -192,96 -260,170 -68,74 -120,164 -154,269 -34,104 -53,223 -58,355 5,132 24,250 58,355 34,105 86,194 154,268 68,74 155,131 260,169 104,39 232,58 382,58 50,0 97,-5 142,-15 44,-10 86,-29 124,-55 39,-26 77,-62 115,-107 37,-46 76,-104 114,-175l-3 342 0 10 396 0 0 -10zm-393 -895c0,228 -43,403 -131,526 -88,123 -203,182 -347,178 -70,2 -135,-6 -195,-24 -59,-18 -109,-50 -152,-96 -42,-45 -74,-107 -97,-184 -23,-78 -34,-173 -34,-287l0 -120c0,-114 11,-209 34,-287 23,-77 55,-139 97,-184 43,-46 93,-77 152,-96 60,-18 125,-26 195,-24 71,-2 136,7 195,26 59,19 110,52 152,97 42,46 74,107 97,183 23,76 34,171 34,285l0 7z"/>
   <path class="fil0" d="M2188 10783l0 -526 -168 0 0 -68 407 0 0 68 -167 0 0 526 -72 0zm318 0l0 -594 71 0 0 594 -71 0zm214 0l0 -594 314 0 0 65 -243 0 0 171 243 0 0 65 -243 0 0 228 243 0 0 65 -314 0zm433 0l0 -617 435 475 0 -452 67 0 0 618 -434 -470 0 446 -68 0zm716 -66l45 0c73,0 123,-3 151,-10 28,-6 52,-17 70,-32 25,-20 43,-47 56,-79 13,-32 19,-68 19,-110 0,-41 -6,-78 -19,-110 -12,-31 -31,-57 -56,-78 -18,-15 -42,-26 -71,-33 -29,-7 -79,-10 -150,-10l-45 0 0 462zm-72 66l0 -594 114 0c85,0 144,5 178,13 35,9 65,23 91,43 34,26 60,60 78,101 17,40 26,88 26,141 0,53 -9,100 -26,140 -18,41 -43,75 -78,101 -26,20 -55,34 -88,43 -34,8 -85,12 -155,12l-26 0 -114 0zm776 -461l-95 219 189 0 -94 -219zm0 -156l270 617 -77 0 -77 -181 -232 0 -77 181 -76 0 269 -617zm648 551l45 0c73,0 124,-3 152,-10 28,-6 51,-17 70,-32 24,-20 43,-47 55,-79 13,-32 20,-68 20,-110 0,-41 -7,-78 -19,-110 -13,-31 -31,-57 -56,-78 -19,-15 -43,-26 -71,-33 -29,-7 -79,-10 -151,-10l-45 0 0 462zm-71 66l0 -594 114 0c84,0 143,5 178,13 34,9 65,23 91,43 34,26 60,60 77,101 18,40 26,88 26,141 0,53 -8,100 -26,140 -17,41 -43,75 -77,101 -26,20 -56,34 -89,43 -33,8 -85,12 -155,12l-25 0 -114 0zm602 0l0 -594 313 0 0 65 -242 0 0 171 242 0 0 65 -242 0 0 228 242 0 0 65 -313 0zm678 0l0 -594 124 0c43,0 76,3 96,7 21,5 39,12 54,23 19,14 33,32 44,54 10,22 15,46 15,73 0,31 -7,57 -22,78 -15,21 -37,36 -66,45 35,5 63,21 83,47 21,26 31,59 31,99 0,23 -4,46 -13,68 -9,21 -21,40 -36,55 -17,17 -37,29 -62,35 -25,7 -66,10 -124,10l-124 0zm69 -278l0 217 55 0c37,0 65,-2 81,-4 17,-3 30,-9 40,-16 12,-9 22,-21 29,-36 7,-15 10,-32 10,-51 0,-22 -4,-41 -12,-57 -9,-16 -21,-28 -37,-37 -9,-6 -20,-10 -33,-12 -12,-3 -31,-4 -57,-4l-21 0 -55 0zm0 -254l0 198 55 0c50,0 86,-7 106,-21 21,-15 31,-40 31,-74 0,-38 -10,-65 -29,-80 -19,-16 -55,-23 -108,-23l-55 0zm399 532l0 -594 71 0 0 594 -71 0zm504 -50c33,0 64,-6 93,-19 29,-12 56,-30 79,-53 23,-24 41,-50 53,-80 13,-29 19,-60 19,-93 0,-34 -6,-65 -19,-95 -12,-30 -30,-57 -53,-80 -23,-23 -49,-41 -79,-53 -29,-12 -60,-18 -93,-18 -33,0 -64,6 -94,18 -29,12 -55,30 -78,53 -23,24 -41,50 -53,80 -12,30 -18,61 -18,95 0,33 6,64 18,93 12,29 30,56 53,80 24,23 50,41 79,54 29,12 60,18 93,18zm318 -245c0,42 -8,82 -24,120 -16,37 -38,71 -69,100 -30,29 -64,52 -103,68 -39,15 -80,23 -122,23 -42,0 -82,-8 -121,-23 -39,-16 -73,-39 -103,-68 -31,-29 -54,-63 -70,-101 -15,-37 -23,-77 -23,-119 0,-43 8,-83 23,-121 16,-37 39,-71 70,-100 29,-29 64,-52 103,-67 39,-16 79,-24 121,-24 42,0 83,8 122,24 39,15 74,38 103,67 31,29 53,62 69,100 16,38 24,78 24,121zm597 -157c-28,-30 -59,-53 -91,-68 -32,-15 -68,-22 -106,-22 -32,0 -63,6 -92,19 -30,13 -56,30 -78,53 -23,24 -40,50 -51,79 -12,29 -17,61 -17,97 0,27 3,53 10,76 7,23 17,44 30,64 24,34 53,60 88,78 35,18 72,27 113,27 38,0 73,-7 105,-23 33,-16 62,-39 89,-70l0 93c-29,22 -61,38 -95,49 -34,11 -69,16 -105,16 -32,0 -62,-4 -92,-14 -30,-9 -58,-23 -84,-41 -43,-29 -76,-66 -99,-110 -23,-44 -34,-92 -34,-145 0,-45 7,-87 23,-124 15,-38 38,-72 70,-102 30,-30 64,-52 100,-66 37,-15 77,-22 121,-22 34,0 68,6 100,16 32,10 64,26 95,48l0 92zm411 402c32,0 63,-6 92,-19 30,-12 56,-30 80,-53 23,-24 41,-50 53,-80 12,-29 18,-60 18,-93 0,-34 -6,-65 -18,-95 -13,-30 -30,-57 -53,-80 -24,-23 -50,-41 -79,-53 -29,-12 -61,-18 -93,-18 -33,0 -65,6 -94,18 -30,12 -56,30 -78,53 -24,24 -41,50 -53,80 -13,30 -19,61 -19,95 0,33 6,64 18,93 12,29 30,56 54,80 24,23 50,41 79,54 29,12 60,18 93,18zm317 -245c0,42 -8,82 -23,120 -16,37 -39,71 -69,100 -30,29 -65,52 -104,68 -39,15 -79,23 -121,23 -42,0 -83,-8 -121,-23 -39,-16 -74,-39 -104,-68 -30,-29 -53,-63 -69,-101 -16,-37 -24,-77 -24,-119 0,-43 8,-83 24,-121 16,-37 39,-71 69,-100 30,-29 64,-52 103,-67 39,-16 80,-24 122,-24 42,0 83,8 122,24 39,15 73,38 103,67 30,29 53,62 69,100 15,38 23,78 23,121zm392 319l-184 -427 -75 403 -69 0 121 -617 207 491 208 -491 121 617 -69 0 -76 -403 -184 427zm420 -24l0 -594 313 0 0 65 -242 0 0 171 242 0 0 65 -242 0 0 228 242 0 0 65 -313 0zm433 0l0 -594 139 0c40,0 69,3 88,7 18,5 35,12 49,23 17,14 31,32 41,55 10,24 14,49 14,77 0,49 -13,86 -40,111 -28,26 -67,38 -120,38l-12 0 226 283 -89 0 -217 -283 -10 0 0 283 -69 0zm69 -534l0 199 54 0c55,0 92,-7 111,-22 18,-14 28,-38 28,-74 0,-38 -10,-65 -29,-80 -19,-15 -56,-23 -110,-23l-54 0zm857 82c-28,-30 -58,-53 -90,-68 -33,-15 -68,-22 -107,-22 -32,0 -62,6 -92,19 -30,13 -56,30 -78,53 -23,24 -40,50 -51,79 -11,29 -17,61 -17,97 0,27 3,53 10,76 7,23 17,44 31,64 23,34 53,60 87,78 35,18 73,27 113,27 38,0 73,-7 106,-23 32,-16 62,-39 88,-70l0 93c-29,22 -61,38 -95,49 -34,11 -69,16 -105,16 -31,0 -62,-4 -92,-14 -30,-9 -57,-23 -83,-41 -44,-29 -77,-66 -100,-110 -22,-44 -34,-92 -34,-145 0,-45 8,-87 23,-124 15,-38 39,-72 70,-102 30,-30 64,-52 101,-66 37,-15 77,-22 120,-22 35,0 68,6 100,16 32,10 64,26 95,48l0 92zm122 452l0 -594 71 0 0 594 -71 0zm504 -50c33,0 64,-6 93,-19 29,-12 56,-30 79,-53 23,-24 41,-50 53,-80 12,-29 19,-60 19,-93 0,-34 -7,-65 -19,-95 -12,-30 -30,-57 -53,-80 -23,-23 -49,-41 -79,-53 -29,-12 -60,-18 -93,-18 -33,0 -64,6 -94,18 -29,12 -55,30 -78,53 -23,24 -41,50 -53,80 -12,30 -18,61 -18,95 0,33 6,64 18,93 12,29 30,56 53,80 24,23 50,41 79,54 29,12 60,18 93,18zm318 -245c0,42 -8,82 -24,120 -16,37 -39,71 -69,100 -30,29 -64,52 -103,68 -39,15 -80,23 -122,23 -42,0 -82,-8 -121,-23 -39,-16 -73,-39 -103,-68 -31,-29 -54,-63 -70,-101 -15,-37 -23,-77 -23,-119 0,-43 8,-83 23,-121 16,-37 39,-71 70,-100 29,-29 64,-52 103,-67 39,-16 79,-24 121,-24 42,0 83,8 122,24 39,15 74,38 103,67 30,29 53,62 69,100 16,38 24,78 24,121z"/>
   <path class="fil0" d="M5237 5266l-397 0 0 -847 -379 0 0 847 -399 0 0 198 399 0 0 1520 379 0 0 -1520 397 0 0 -198zm1713 970c0,-13 1,-31 2,-53 1,-21 2,-38 2,-49 4,-112 -13,-218 -51,-319 -39,-102 -95,-191 -168,-267 -73,-76 -160,-137 -263,-181 -102,-44 -216,-68 -341,-70 -119,5 -228,30 -328,75 -100,46 -188,107 -262,183 -74,76 -131,164 -172,265 -41,100 -62,207 -62,321 5,123 30,235 74,338 44,102 104,191 179,265 75,74 164,131 265,172 101,41 212,62 333,62 80,4 156,-7 229,-35 73,-27 144,-57 215,-88l-27 -113c-144,39 -258,58 -342,58 -102,0 -188,-18 -256,-55 -68,-36 -124,-82 -166,-136 -42,-55 -73,-115 -92,-181 -19,-66 -32,-130 -39,-192l1270 0zm-833 -744l7 0c125,0 228,42 307,126 80,84 129,220 147,407l-895 0c7,-69 21,-135 41,-199 21,-63 49,-120 84,-169 35,-49 78,-88 130,-119 51,-31 111,-46 179,-46zm2004 -219c-325,0 -574,80 -746,241 -172,160 -258,380 -258,657l0 810 393 0 0 -946c0,-114 17,-209 53,-285 35,-77 81,-138 138,-183 57,-46 121,-78 191,-97 71,-20 142,-28 212,-26 27,0 56,0 86,2 29,1 58,4 85,8l0 -177c-25,-3 -51,-4 -79,-4 -25,0 -50,0 -75,0zm1215 0c-325,0 -574,80 -746,241 -172,160 -258,380 -258,657l0 810 393 0 0 -946c0,-114 18,-209 53,-285 35,-77 81,-138 138,-183 57,-46 121,-78 191,-97 71,-20 142,-28 212,-26 28,0 56,0 86,2 29,1 58,4 85,8l0 -177c-25,-3 -51,-4 -79,-4 -25,0 -50,0 -75,0zm1953 1698c0,-201 0,-355 0,-465 0,-111 0,-193 0,-246 0,-54 0,-89 0,-102 0,-14 0,-23 0,-28 -4,-132 -24,-250 -58,-355 -34,-105 -86,-194 -157,-268 -70,-74 -161,-131 -271,-171 -111,-40 -245,-59 -402,-59 -150,0 -278,19 -382,59 -105,40 -192,97 -260,171 -68,74 -120,163 -154,268 -34,105 -53,223 -58,355 5,133 24,251 58,356 34,104 86,194 154,268 68,74 155,130 260,169 104,39 232,58 382,58 50,0 98,-5 142,-15 44,-11 86,-29 125,-55 38,-26 76,-62 114,-108 38,-45 76,-103 114,-174l-3 342 0 10 396 0 0 -10zm-393 -895c0,228 -43,403 -131,526 -88,123 -203,182 -347,177 -70,3 -135,-5 -194,-23 -60,-19 -110,-51 -152,-96 -43,-46 -75,-107 -98,-185 -23,-77 -34,-173 -34,-286l0 -120c0,-114 11,-210 34,-287 23,-77 55,-139 98,-184 42,-46 92,-78 152,-96 59,-18 124,-26 194,-24 71,-2 136,6 195,26 59,19 110,51 152,97 42,46 75,106 97,183 23,76 34,171 34,285l0 7z"/>
  </g>
 </g>
</svg>
